<svg xmlns="http://www.w3.org/2000/svg" xmlns:xlink="http://www.w3.org/1999/xlink" class="cartogram active" version="1.1" viewBox="0 0 720 500" xml:space="preserve"><g data-postal="AL"><rect width="42" height="42" x="397.6" y="360.5"/><text>AL</text></g><g data-postal="AK"><rect width="24" height="24" x="10.6" y="18"/><text>AK</text></g><g data-postal="AZ"><rect width="46" height="46" x="146.6" y="308"/><text>AZ</text></g><g data-postal="AR"><rect width="34" height="34" x="313.6" y="321.5"/><text>AR</text></g><g data-postal="CA"><rect width="104" height="104" x="10.6" y="233.5"/><text>CA</text></g><g data-postal="CO"><rect width="42" height="42" x="197.6" y="261"/><text>CO</text></g><g data-postal="CT"><rect width="37" height="37" x="633.6" y="137"/><text>CT</text></g><g data-postal="DE"><rect width="24" height="24" x="579.6" y="224"/><text>DE</text></g><g data-postal="DC"><rect width="24" height="24" x="550.6" y="224"/><text>DC</text></g><g data-postal="FL"><rect width="76" height="76" x="469.6" y="421.5"/><text>FL</text></g><g data-postal="GA"><rect width="56" height="56" x="444.6" y="360.5"/><text>GA</text></g><g data-postal="HI"><rect width="28" height="28" x="10.6" y="403"/><text>HI</text></g><g data-postal="ID"><rect width="28" height="28" x="127.1" y="198"/><text>ID</text></g><g data-postal="IL"><rect width="63" height="63" x="275.6" y="195"/><text>IL</text></g><g data-postal="IN"><rect width="46" height="46" x="343.6" y="195"/><text>IN</text></g><g data-postal="IA"><rect width="34" height="34" x="236.6" y="183"/><text>IA</text></g><g data-postal="KS"><rect width="34" height="34" x="261.1" y="263"/><text>KS</text></g><g data-postal="KY"><rect width="40" height="40" x="381.1" y="264.5"/><text>KY</text></g><g data-postal="LA"><rect width="40" height="40" x="313.6" y="360.5"/><text>LA</text></g><g data-postal="ME"><g data-postal="ME-1"><rect width="14" height="14" x="683" y="18"/></g><g data-postal="ME-2"><rect width="14" height="14" x="699" y="18"/></g><g data-postal="ME-AL"><rect width="14" height="14" x="683" y="34"/></g><g data-postal="ME-AL"><rect width="14" height="14" x="699" y="34"/></g><text>ME</text></g><g data-postal="MD"><rect width="44" height="44" x="527.6" y="175"/><text>MD</text></g><g data-postal="MA"><rect width="46" height="46" x="633.6" y="86"/><text>MA</text></g><g data-postal="MI"><rect width="56" height="56" x="365.1" y="134"/><text>MI</text></g><g data-postal="MN"><rect width="44" height="44" x="226.6" y="134"/><text>MN</text></g><g data-postal="MS"><rect width="34" height="34" x="358.6" y="360.5"/><text>MS</text></g><g data-postal="MO"><rect width="44" height="44" x="313.6" y="272.5"/><text>MO</text></g><g data-postal="MT"><rect width="24" height="24" x="143.6" y="134"/><text>MT</text></g><g data-postal="NE"><g data-postal="NE-1"><rect width="14" height="14" x="224.6" y="222"/></g><g data-postal="NE-2"><rect width="14" height="14" x="240.6" y="222"/></g><g data-postal="NE-3"><rect width="14" height="14" x="256.6" y="222"/></g><g data-postal="NE-AL"><rect width="14" height="14" x="240.6" y="238"/></g><g data-postal="NE-AL"><rect width="14" height="14" x="256.6" y="238"/></g><text>NE</text></g><g data-postal="NV"><rect width="34" height="34" x="119.6" y="269"/><text>NV</text></g><g data-postal="NH"><rect width="28" height="28" x="662.6" y="53"/><text>NH</text></g><g data-postal="NJ"><rect width="52" height="52" x="576.6" y="167"/><text>NJ</text></g><g data-postal="NM"><rect width="31" height="31" x="197.6" y="308"/><text>NM</text></g><g data-postal="NY"><rect width="76" height="76" x="552.6" y="86"/><text>NY</text></g><g data-postal="NC"><rect width="54" height="54" x="491.6" y="279"/><text>NC</text></g><g data-postal="ND"><rect width="24" height="24" x="197.6" y="134"/><text>ND</text></g><g data-postal="OH"><rect width="60" height="60" x="394.6" y="195"/><text>OH</text></g><g data-postal="OK"><rect width="37" height="37" x="258.1" y="302"/><text>OK</text></g><g data-postal="OR"><rect width="37" height="37" x="76.6" y="189"/><text>OR</text></g><g data-postal="PA"><rect width="63" height="63" x="459.6" y="156"/><text>PA</text></g><g data-postal="RI"><rect width="28" height="28" x="675.6" y="137"/><text>RI</text></g><g data-postal="SC"><rect width="42" height="42" x="444.6" y="313.5"/><text>SC</text></g><g data-postal="SD"><rect width="24" height="24" x="197.6" y="163"/><text>SD</text></g><g data-postal="TN"><rect width="46" height="46" x="375.1" y="309.5"/><text>TN</text></g><g data-postal="TX"><rect width="87" height="87" x="221.6" y="344"/><text>TX</text></g><g data-postal="UT"><rect width="34" height="34" x="158.6" y="269"/><text>UT</text></g><g data-postal="VT"><rect width="24" height="24" x="633.6" y="57"/><text>VT</text></g><g data-postal="VA"><rect width="50" height="50" x="495.6" y="224"/><text>VA</text></g><g data-postal="WA"><rect width="48" height="48" x="65.6" y="134"/><text>WA</text></g><g data-postal="WV"><rect width="31" height="31" x="459.6" y="224"/><text>WV</text></g><g data-postal="WI"><rect width="44" height="44" x="275.6" y="146"/><text>WI</text></g><g data-postal="WY"><rect width="24" height="24" x="168.6" y="202"/><text>WY</text></g></svg>