<svg xmlns="http://www.w3.org/2000/svg" xmlns:xlink="http://www.w3.org/1999/xlink" width="7.4" height="15.4" x="0" y="0" enable-background="new 0 0 7.4 15.4" version="1.1" viewBox="0 0 7.4 15.4" xml:space="preserve"><g><path fill="#EFEDE9" d="M4.4,12.9c0,0.3,0.2,0.4,0.3,0.4c0.3,0,0.7-0.2,1.3-1.6l1.2,0.4c-0.8,2.1-2.1,3.3-3.8,3.3 c-1.4,0-2.3-0.8-2.3-2.2c0-1.5,1.7-4.8,1.7-5.7c0-0.3-0.1-0.4-0.3-0.4c-0.4,0-0.8,0.8-1.4,2L0,8.8c1-2.4,2.2-3.7,4-3.7 c1.2,0,2.1,0.8,2.1,1.9C6.1,8.7,4.4,11.9,4.4,12.9z M5.2,3.9c-1,0-1.8-0.7-1.8-1.7c0-1,0.8-2.1,2.2-2.1c1,0,1.8,0.7,1.8,1.7 C7.4,2.7,6.7,3.9,5.2,3.9z"/></g></svg>